<?xml version="1.0" encoding="utf-8"?>
<!-- Generator: Adobe Illustrator 16.0.0, SVG Export Plug-In . SVG Version: 6.00 Build 0)  -->
<!DOCTYPE svg PUBLIC "-//W3C//DTD SVG 1.1//EN" "http://www.w3.org/Graphics/SVG/1.1/DTD/svg11.dtd">
<svg version="1.1" id="Layer_1" xmlns="http://www.w3.org/2000/svg" xmlns:xlink="http://www.w3.org/1999/xlink" x="0px" y="0px"
	 width="60px" height="60px" viewBox="370 370 60 60" enable-background="new 370 370 60 60" xml:space="preserve">
<g id="Instagram">
	<g>
		<path fill="#FFFFFF" d="M400,390.452c5.266,0,9.549,4.283,9.549,9.548c0,5.266-4.283,9.549-9.549,9.549
			c-5.265,0-9.548-4.283-9.548-9.549C390.452,394.735,394.735,390.452,400,390.452 M400,388.952
			c-6.092,0-11.048,4.956-11.048,11.048s4.956,11.049,11.048,11.049s11.049-4.957,11.049-11.049S406.092,388.952,400,388.952
			L400,388.952z"/>
	</g>
	<circle fill="#FFFFFF" cx="412.565" cy="387.435" r="1.339"/>
	<g>
		<g>
			<path fill="#FFFFFF" d="M400,379c6.28,0,7.105,0.026,9.587,0.139c1.984,0.091,3.5,0.376,4.912,0.924
				c1.317,0.513,2.303,1.154,3.293,2.144c0.991,0.992,1.633,1.977,2.145,3.295c0.549,1.41,0.833,2.924,0.925,4.91
				c0.112,2.473,0.139,3.296,0.139,9.589c0,6.293-0.026,7.117-0.139,9.59c-0.092,1.984-0.376,3.498-0.925,4.908
				c-0.513,1.319-1.153,2.305-2.144,3.295s-1.975,1.631-3.293,2.144c-1.413,0.55-2.928,0.835-4.911,0.925
				C407.117,420.974,406.294,421,400,421c-6.293,0-7.117-0.026-9.589-0.139c-1.983-0.09-3.497-0.375-4.909-0.925
				c-1.319-0.513-2.304-1.153-3.294-2.144c-0.99-0.99-1.631-1.976-2.144-3.293c-0.548-1.412-0.833-2.927-0.924-4.91
				c-0.113-2.464-0.139-3.285-0.139-9.59c0-6.304,0.026-7.125,0.139-9.589c0.091-1.984,0.376-3.499,0.924-4.911
				c0.511-1.316,1.152-2.301,2.145-3.294c0.987-0.987,1.972-1.628,3.292-2.143c1.41-0.548,2.924-0.833,4.91-0.924
				C392.895,379.026,393.72,379,400,379 M400,377.5c-6.324,0-7.156,0.027-9.657,0.141c-2.155,0.1-3.815,0.415-5.385,1.024
				c-1.506,0.587-2.682,1.352-3.811,2.481c-1.132,1.132-1.898,2.307-2.482,3.812c-0.61,1.571-0.926,3.232-1.024,5.385
				c-0.114,2.502-0.141,3.333-0.141,9.657s0.026,7.156,0.141,9.658c0.099,2.151,0.414,3.812,1.024,5.385
				c0.585,1.504,1.351,2.68,2.481,3.811s2.307,1.896,3.812,2.481c1.569,0.61,3.23,0.927,5.385,1.024
				c2.489,0.113,3.319,0.141,9.657,0.141s7.168-0.027,9.657-0.141c2.155-0.098,3.815-0.414,5.386-1.024
				c1.504-0.585,2.68-1.351,3.811-2.481s1.896-2.307,2.481-3.812c0.61-1.57,0.926-3.231,1.024-5.384
				c0.113-2.49,0.141-3.32,0.141-9.658c0-6.339-0.027-7.167-0.141-9.657c-0.099-2.153-0.414-3.814-1.024-5.385
				c-0.585-1.505-1.351-2.68-2.481-3.812c-1.131-1.13-2.305-1.896-3.811-2.481c-1.57-0.608-3.23-0.925-5.387-1.024
				C407.156,377.527,406.324,377.5,400,377.5L400,377.5z"/>
		</g>
	</g>
</g>
</svg>
