<?xml version="1.0" encoding="utf-8"?>
<!-- Generator: Adobe Illustrator 16.0.0, SVG Export Plug-In . SVG Version: 6.00 Build 0)  -->
<!DOCTYPE svg PUBLIC "-//W3C//DTD SVG 1.1//EN" "http://www.w3.org/Graphics/SVG/1.1/DTD/svg11.dtd">
<svg version="1.1" id="Layer_1" xmlns="http://www.w3.org/2000/svg" xmlns:xlink="http://www.w3.org/1999/xlink" x="0px" y="0px"
	 width="60px" height="60px" viewBox="370 370 60 60" enable-background="new 370 370 60 60" xml:space="preserve">
<g>
	<g>
		<path fill="#FFFFFF" d="M425.699,386.716c0-0.385-0.04-0.76-0.106-1.126L409.349,400l16.244,14.41
			c0.066-0.365,0.106-0.74,0.106-1.125V386.716z"/>
	</g>
	<g>
		<path fill="#FFFFFF" d="M400,401.609l22.773-20.202c-0.973-0.618-2.122-0.982-3.358-0.982h-38.828
			c-1.237,0-2.388,0.364-3.36,0.982L400,401.609z"/>
	</g>
	<g>
		<path fill="#FFFFFF" d="M374.407,385.59c-0.066,0.366-0.106,0.741-0.106,1.126v26.558c-0.001,0.389,0.038,0.769,0.105,1.139
			l16.246-14.411L374.407,385.59z"/>
	</g>
	<g>
		<path fill="#FFFFFF" d="M405.582,403.342l-3.934,3.49h-0.001c-0.112,0.1-0.23,0.186-0.356,0.262
			c-0.018,0.011-0.036,0.021-0.054,0.031c-0.112,0.062-0.227,0.121-0.346,0.166c-0.043,0.016-0.087,0.027-0.131,0.041
			c-0.101,0.032-0.2,0.064-0.303,0.083c-0.11,0.021-0.221,0.028-0.332,0.034c-0.039,0.002-0.077,0.012-0.116,0.012
			c-0.003,0-0.007,0-0.01,0s-0.007,0-0.01,0c-0.039,0-0.077-0.01-0.116-0.012c-0.111-0.006-0.222-0.014-0.332-0.034
			c-0.103-0.019-0.202-0.051-0.303-0.083c-0.044-0.014-0.088-0.025-0.131-0.041c-0.119-0.045-0.233-0.104-0.346-0.166
			c-0.018-0.011-0.036-0.021-0.054-0.031c-0.126-0.076-0.244-0.162-0.356-0.262h-0.001l-3.933-3.488l-17.194,15.251
			c0.971,0.618,2.117,0.98,3.35,0.98h38.841c1.235,0,2.386-0.363,3.358-0.981L405.582,403.342z"/>
	</g>
</g>
</svg>
