<?xml version="1.0" encoding="utf-8"?>
<!-- Generator: Adobe Illustrator 16.0.0, SVG Export Plug-In . SVG Version: 6.00 Build 0)  -->
<!DOCTYPE svg PUBLIC "-//W3C//DTD SVG 1.1//EN" "http://www.w3.org/Graphics/SVG/1.1/DTD/svg11.dtd">
<svg version="1.1" id="Layer_1" xmlns="http://www.w3.org/2000/svg" xmlns:xlink="http://www.w3.org/1999/xlink" x="0px" y="0px"
	 width="60px" height="60px" viewBox="370 370 60 60" enable-background="new 370 370 60 60" xml:space="preserve">
<g id="Twitter_3_">
	<path fill="#FFFFFF" d="M422.152,386.257c-1.658,0.734-3.418,1.217-5.221,1.43c1.898-1.137,3.318-2.923,3.996-5.027
		c-1.785,1.058-3.736,1.805-5.771,2.206c-3.443-3.66-9.201-3.837-12.859-0.395c-2.363,2.22-3.364,5.527-2.632,8.685
		c-7.309-0.365-14.118-3.818-18.733-9.497c-2.413,4.153-1.18,9.468,2.814,12.135c-1.445-0.043-2.861-0.434-4.125-1.138
		c0,0.037,0,0.075,0,0.114c0,4.327,3.051,8.055,7.293,8.911c-1.339,0.365-2.743,0.418-4.105,0.156
		c1.19,3.702,4.604,6.238,8.493,6.312c-3.218,2.529-7.194,3.902-11.289,3.898c-0.723-0.002-1.446-0.045-2.164-0.131
		c4.157,2.666,8.993,4.082,13.932,4.075V418c16.72,0,25.864-13.851,25.864-25.864c0-0.393,0-0.784-0.027-1.175
		C419.396,389.675,420.932,388.082,422.152,386.257z"/>
</g>
</svg>
